<svg width="40" height="40" viewBox="0 0 40 40" fill="none" xmlns="http://www.w3.org/2000/svg">
<circle cx="20" cy="20" r="19.5" stroke="black"/>
<path d="M19.9092 12C19.9092 15.7095 19.9092 19.2989 19.9092 23.1221C19.9092 24.8654 19.9092 26.6338 19.9092 28.4515" stroke="black" stroke-linecap="round" stroke-linejoin="round"/>
<path d="M20.1449 12C19.3882 15.7719 20.7124 19.5149 20.5232 23.2288C20.334 26.9427 20.1449 26.7686 20.5232 28.4515" stroke="black" stroke-linecap="round" stroke-linejoin="round"/>
<path d="M12 20.542C15.7095 20.542 19.2989 20.542 23.1221 20.542C24.8654 20.542 26.6338 20.542 28.4515 20.542" stroke="black" stroke-linecap="round" stroke-linejoin="round"/>
<path d="M12 20.3063C15.7719 21.063 19.5149 19.7388 23.2288 19.928C26.9427 20.1171 26.7686 20.3063 28.4515 19.928" stroke="black" stroke-linecap="round" stroke-linejoin="round"/>
</svg>
