<?xml version="1.0" standalone="no"?>
<!DOCTYPE svg PUBLIC "-//W3C//DTD SVG 20010904//EN" "http://www.w3.org/TR/2001/REC-SVG-20010904/DTD/svg10.dtd">
<svg version="1.0" xmlns="http://www.w3.org/2000/svg" width="40" height="40" viewBox="0 0 290.000000 270.000000" preserveAspectRatio="xMidYMid meet">

<g transform="translate(0.000000,270.000000) scale(0.100000,-0.100000)" fill="#2C54E4" stroke="none">
<path d="M2410 2565 l0 -125 -125 0 -125 0 0 -115 0 -115 125 0 125 0 0 -125 0 -125 115 0 115 0 0 125 0 125 125 0 125 0 0 115 0 115 -125 0 -125 0 0 125 0 125 -115 0 -115 0 0 -125z"/>
<path d="M1127 2466 c-3 -8 -26 -17 -54 -21 -53 -7 -149 -42 -174 -62 -8 -7
-19 -13 -23 -13 -16 0 -114 -78 -155 -124 -14 -16 -34 -36 -43 -45 -10 -8 -18
-19 -18 -22 0 -4 -16 -31 -35 -60 -19 -30 -35 -60 -35 -67 0 -8 -6 -26 -14
-40 -38 -73 -62 -247 -48 -334 22 -130 38 -185 72 -253 40 -81 44 -87 88 -131
47 -48 41 -74 -23 -90 -17 -3 -41 -12 -55 -19 -196 -96 -247 -123 -292 -156
-71 -52 -145 -125 -177 -174 -43 -68 -101 -189 -101 -213 0 -36 -21 -112 -31
-112 -5 0 -9 -48 -9 -106 0 -79 4 -109 15 -120 8 -8 17 -31 20 -52 4 -20 16
-55 27 -77 28 -54 115 -135 144 -135 13 0 33 -9 44 -20 20 -20 33 -20 994 -20
840 0 975 2 979 14 3 8 22 18 41 21 23 5 53 24 88 59 58 55 84 100 93 159 3
21 13 41 21 44 21 8 20 211 -1 227 -9 6 -19 34 -24 61 -16 98 -79 202 -190
318 -55 58 -162 147 -191 160 -8 4 -42 25 -75 46 -53 35 -88 54 -195 105 -36
17 -36 42 2 80 49 50 58 63 93 135 44 91 80 272 71 360 -8 79 -33 186 -52 223
-8 14 -14 32 -14 40 0 7 -16 37 -35 67 -19 29 -35 55 -35 58 0 6 -59 70 -89
97 -14 11 -32 28 -41 36 -25 23 -78 60 -86 60 -4 0 -15 6 -23 13 -23 19 -119
54 -165 61 -21 3 -46 12 -56 21 -23 21 -225 22 -233 1z m285 -210 c37 -13 73
-28 80 -33 7 -6 18 -12 23 -14 6 -2 31 -20 56 -39 70 -53 116 -120 173 -252
12 -27 16 -70 16 -181 0 -84 -4 -148 -10 -152 -5 -3 -14 -24 -20 -46 -8 -29
-30 -59 -76 -105 -36 -35 -71 -64 -79 -64 -7 0 -15 -6 -18 -13 -2 -7 -29 -25
-58 -40 -30 -16 -61 -32 -69 -36 -80 -42 -96 -46 -190 -46 -53 0 -108 5 -121
12 -13 6 -46 21 -73 34 -61 28 -126 70 -126 81 0 4 -5 8 -11 8 -7 0 -35 20
-64 44 -38 33 -62 66 -88 120 l-37 75 0 138 c1 101 5 145 15 163 8 14 14 34
15 46 0 12 9 31 20 44 11 13 20 27 20 32 0 30 129 158 177 175 10 3 25 12 33
18 70 57 291 74 412 31z m-582 -1201 c11 -13 69 -15 413 -15 368 0 401 1 412
17 13 17 14 17 32 0 11 -9 26 -17 34 -18 8 0 37 -13 64 -30 28 -16 61 -34 74
-39 13 -6 41 -24 61 -40 21 -17 41 -30 44 -30 15 0 76 -51 153 -128 62 -63 92
-103 120 -160 35 -72 38 -84 41 -186 3 -96 1 -115 -18 -153 -39 -79 47 -73
-1021 -73 l-957 0 -32 36 c-45 51 -50 72 -50 195 0 111 22 211 56 250 8 8 14
18 14 22 0 12 59 92 87 119 39 37 122 95 159 112 17 8 35 19 38 25 4 6 18 11
30 11 13 0 29 7 36 15 7 8 17 15 22 15 11 0 93 35 128 54 33 19 45 19 60 1z"/>
</g>
</svg>
