<svg width="15" height="15" viewBox="0 0 15 15" fill="none" xmlns="http://www.w3.org/2000/svg">
<path d="M5.23268 0C7.29503 0 10.4958 0.668478 11.3043 1.22283C11.4857 1.35326 11.5847 1.54891 11.5847 1.76087V8.13587C11.5847 8.33152 11.4857 8.52717 11.3373 8.6413C11.2878 8.67391 10.1328 9.57065 8.92842 10.2391C7.42702 11.0543 6.3876 12.1957 6.14011 12.913C5.82663 13.7935 5.39766 15 4.04476 15C3.4013 15 2.87334 14.6413 2.59286 14.0217C2.0319 12.75 2.62585 10.9891 3.61579 9.60326C2.95583 9.45652 2.13089 9.24457 1.63592 9.09783C0.744985 8.82065 0.134527 8.16848 0.0190352 7.36957C-0.0964569 6.55435 0.316015 5.72283 1.19045 5.08696C1.83391 3.3913 2.93933 0.668478 3.74778 0.228261C4.04476 0.0652174 4.58922 0 5.23268 0ZM10.2483 2.15217C8.99441 1.63043 5.13368 1.07609 4.40773 1.36957C4.02826 1.71196 3.05483 3.89674 2.37837 5.73913C2.32888 5.86957 2.24638 5.9837 2.13089 6.06522C1.58643 6.42391 1.30595 6.84783 1.35544 7.20652C1.40494 7.5 1.66892 7.74457 2.06489 7.875C2.88984 8.13587 4.9357 8.57609 4.96869 8.57609C5.19968 8.625 5.38116 8.78804 5.46366 9.0163C5.54615 9.24457 5.48016 9.48913 5.31517 9.65217C3.83027 11.2337 3.56629 12.8478 3.84677 13.5C3.91277 13.6957 3.99526 13.6957 4.04476 13.6957C4.37473 13.6957 4.52322 13.4674 4.8697 12.4891C5.26567 11.3478 6.63508 9.97826 8.26847 9.09783C9.06041 8.67391 9.85236 8.10326 10.2483 7.80978V2.15217ZM12.8551 1.69565V8.20109C12.8551 8.78804 13.3336 9.26087 13.9276 9.26087C14.5215 9.26087 15 8.78804 15 8.20109V1.69565C15 1.1087 14.5215 0.63587 13.9276 0.63587C13.3336 0.63587 12.8551 1.125 12.8551 1.69565Z" fill="blue"/>
</svg>
