<svg width="36" height="36" viewBox="0 0 36 36" fill="none" xmlns="http://www.w3.org/2000/svg">
<path d="M33 36H3C1.35 36 0 34.65 0 33V18V15V7.5C0 5.85 1.35 4.5 3 4.5H6V1.5C6 0.6 6.6 0 7.5 0C8.4 0 9 0.6 9 1.5V4.5H16.5V1.5C16.5 0.6 17.1 0 18 0C18.9 0 19.5 0.6 19.5 1.5V4.5H27V1.5C27 0.6 27.6 0 28.5 0C29.4 0 30 0.6 30 1.5V4.5H33C34.65 4.5 36 5.85 36 7.5V15V18V33C36 34.65 34.65 36 33 36ZM33 7.5H30V9C30 9.9 29.4 10.5 28.5 10.5C27.6 10.5 27 9.9 27 9V7.5H19.5V9C19.5 9.9 18.9 10.5 18 10.5C17.1 10.5 16.5 9.9 16.5 9V7.5H9V9C9 9.9 8.4 10.5 7.5 10.5C6.6 10.5 6 9.9 6 9V7.5H3V15H33V7.5ZM33 18H3V33H33V18Z" fill="#2C54E4" fill-opacity="0.5"/>
</svg>
