<svg width="27" height="26" viewBox="0 0 27 26" fill="none" xmlns="http://www.w3.org/2000/svg">
<path d="M0 5C0 2.23858 2.23858 0 5 0H21.8436C24.605 0 26.8436 2.23858 26.8436 5V20.2959C26.8436 23.0573 24.605 25.2959 21.8436 25.2959H5.00001C2.23858 25.2959 0 23.0573 0 20.2959V5Z" fill="#5575E9"/>
<path d="M7.62939e-06 5C7.62939e-06 2.23858 2.23858 0 5.00001 0H21.8436C24.605 0 26.8436 2.23858 26.8436 5V20.2959C26.8436 23.0573 24.605 25.2959 21.8436 25.2959H5.00002C2.23859 25.2959 7.62939e-06 23.0573 7.62939e-06 20.2959V5Z" fill="#5575E9"/>
<path d="M13.8472 17.7439C13.7805 17.9173 13.6472 18.0039 13.4472 18.0039H12.4672C12.2672 18.0039 12.1405 17.9173 12.0872 17.7439L8.56716 7.46393C8.54049 7.39726 8.54716 7.33726 8.58716 7.28393C8.62716 7.21726 8.68716 7.18392 8.76716 7.18392H9.66716C9.82716 7.18392 9.94716 7.27726 10.0272 7.46393L12.9872 16.6239L16.0672 7.46393C16.0938 7.38393 16.1405 7.31726 16.2072 7.26392C16.2738 7.21059 16.3472 7.18392 16.4272 7.18392H17.3072C17.3872 7.18392 17.4472 7.21726 17.4872 7.28393C17.5272 7.33726 17.5338 7.39726 17.5072 7.46393L13.8472 17.7439Z" fill="white"/>
</svg>
