<svg width="36" height="35" viewBox="0 0 36 35" fill="none" xmlns="http://www.w3.org/2000/svg">
<path d="M18 35C8.1 35 0 27.125 0 17.5C0 7.875 8.1 0 18 0C27.9 0 36 7.875 36 17.5C36 27.125 27.9 35 18 35ZM18 2.91667C9.75 2.91667 3 9.47917 3 17.5C3 25.5208 9.75 32.0833 18 32.0833C26.25 32.0833 33 25.5208 33 17.5C33 9.47917 26.25 2.91667 18 2.91667ZM24.3 23.625C23.7 24.2084 22.8 24.2084 22.2 23.625L18 19.5417L13.8 23.625C13.2 24.2084 12.3 24.2084 11.7 23.625C11.1 23.0417 11.1 22.1667 11.7 21.5833L15.9 17.5L11.7 13.4167C11.1 12.8334 11.1 11.9583 11.7 11.375C12.3 10.7916 13.2 10.7916 13.8 11.375L18 15.4583L22.2 11.375C22.8 10.7916 23.7 10.7916 24.3 11.375C24.9 11.9583 24.9 12.8334 24.3 13.4167L20.1 17.5L24.3 21.5833C24.9 22.1667 24.9 23.1875 24.3 23.625Z" fill="white"/>
</svg>
