<svg width="16" height="15" viewBox="0 0 16 15" fill="none" xmlns="http://www.w3.org/2000/svg">
<mask id="path-1-inside-1_269_269" fill="white">
<path d="M14.6667 11.8421H13.3333L12.8 12.7632L11.6 14.6053C11.0667 15.1316 10.2667 15.1316 9.73334 14.6053L8 11.8421H1.33333C0.6 11.8421 0 11.25 0 10.5263V1.31579C0 0.592105 0.6 0 1.33333 0H14.6667C15.4 0 16 0.592105 16 1.31579V10.5263C16 11.25 15.4 11.8421 14.6667 11.8421ZM14.6667 1.31579H1.33333V10.5263H8.66667C9 11.1184 9.33333 11.8421 9.33333 11.8421L10.6667 13.8158L12 11.8421C12 11.8421 12.2667 11.1842 12.6667 10.5263H14.6667V1.31579Z"/>
</mask>
<path d="M14.6667 11.8421H13.3333L12.8 12.7632L11.6 14.6053C11.0667 15.1316 10.2667 15.1316 9.73334 14.6053L8 11.8421H1.33333C0.6 11.8421 0 11.25 0 10.5263V1.31579C0 0.592105 0.6 0 1.33333 0H14.6667C15.4 0 16 0.592105 16 1.31579V10.5263C16 11.25 15.4 11.8421 14.6667 11.8421ZM14.6667 1.31579H1.33333V10.5263H8.66667C9 11.1184 9.33333 11.8421 9.33333 11.8421L10.6667 13.8158L12 11.8421C12 11.8421 12.2667 11.1842 12.6667 10.5263H14.6667V1.31579Z" fill="#444444"/>
<path d="M13.3333 11.8421V7.84211H11.0273L9.87178 9.8377L13.3333 11.8421ZM12.8 12.7632L16.1516 14.9465L16.2089 14.8585L16.2616 14.7676L12.8 12.7632ZM11.6 14.6053L14.4096 17.4524L14.7164 17.1497L14.9516 16.7886L11.6 14.6053ZM9.73334 14.6053L6.34486 16.7309L6.59229 17.1253L6.9237 17.4524L9.73334 14.6053ZM8 11.8421L11.3885 9.7165L10.2127 7.84211H8V11.8421ZM14.6667 1.31579H18.6667V-2.68421H14.6667V1.31579ZM1.33333 1.31579V-2.68421H-2.66667V1.31579H1.33333ZM1.33333 10.5263H-2.66667V14.5263H1.33333V10.5263ZM8.66667 10.5263L12.1523 8.56405L11.0051 6.52632H8.66667V10.5263ZM9.33333 11.8421L5.70021 13.5155L5.83647 13.8114L6.01879 14.0813L9.33333 11.8421ZM10.6667 13.8158L7.35213 16.0549L10.6667 20.9613L13.9812 16.0549L10.6667 13.8158ZM12 11.8421L15.3145 14.0813L15.5494 13.7336L15.7071 13.3447L12 11.8421ZM12.6667 10.5263V6.52632H10.4174L9.24882 8.44826L12.6667 10.5263ZM14.6667 10.5263V14.5263H18.6667V10.5263H14.6667ZM14.6667 7.84211H13.3333V15.8421H14.6667V7.84211ZM9.87178 9.8377L9.33845 10.7588L16.2616 14.7676L16.7949 13.8465L9.87178 9.8377ZM9.44842 10.5798L8.24841 12.4219L14.9516 16.7886L16.1516 14.9465L9.44842 10.5798ZM8.79036 11.7582C9.25402 11.3006 9.92296 11 10.6667 11C11.4104 11 12.0793 11.3006 12.543 11.7582L6.9237 17.4524C9.01474 19.5159 12.3186 19.5159 14.4096 17.4524L8.79036 11.7582ZM13.1218 12.4797L11.3885 9.7165L4.61152 13.9677L6.34486 16.7309L13.1218 12.4797ZM8 7.84211H1.33333V15.8421H8V7.84211ZM1.33333 7.84211C2.75902 7.84211 4 8.99108 4 10.5263H-4C-4 13.5089 -1.55902 15.8421 1.33333 15.8421V7.84211ZM4 10.5263V1.31579H-4V10.5263H4ZM4 1.31579C4 2.85103 2.75902 4 1.33333 4V-4C-1.55902 -4 -4 -1.66682 -4 1.31579H4ZM1.33333 4H14.6667V-4H1.33333V4ZM14.6667 4C13.241 4 12 2.85103 12 1.31579H20C20 -1.66682 17.559 -4 14.6667 -4V4ZM12 1.31579V10.5263H20V1.31579H12ZM12 10.5263C12 8.99108 13.241 7.84211 14.6667 7.84211V15.8421C17.559 15.8421 20 13.5089 20 10.5263H12ZM14.6667 -2.68421H1.33333V5.31579H14.6667V-2.68421ZM-2.66667 1.31579V10.5263H5.33333V1.31579H-2.66667ZM1.33333 14.5263H8.66667V6.52632H1.33333V14.5263ZM5.18105 12.4886C5.29417 12.6895 5.42298 12.9418 5.5335 13.1672C5.58624 13.2748 5.63004 13.3665 5.65998 13.4298C5.67487 13.4613 5.6861 13.4853 5.69306 13.5002C5.69653 13.5076 5.69892 13.5128 5.70014 13.5154C5.70075 13.5167 5.70107 13.5174 5.70108 13.5174C5.70109 13.5175 5.70102 13.5173 5.70088 13.517C5.7008 13.5168 5.70071 13.5166 5.7006 13.5164C5.70055 13.5163 5.70048 13.5161 5.70042 13.516C5.70039 13.5159 5.70033 13.5158 5.70032 13.5158C5.70026 13.5157 5.70021 13.5155 9.33333 11.8421C12.9665 10.1687 12.9664 10.1685 12.9663 10.1684C12.9663 10.1684 12.9663 10.1682 12.9662 10.1681C12.9661 10.168 12.966 10.1678 12.9659 10.1676C12.9658 10.1671 12.9655 10.1667 12.9653 10.1662C12.9648 10.1651 12.9643 10.164 12.9637 10.1626C12.9624 10.1598 12.9608 10.1564 12.9589 10.1523C12.9551 10.144 12.95 10.133 12.9437 10.1195C12.9311 10.0926 12.9137 10.0554 12.8921 10.0098C12.8491 9.91889 12.7888 9.79262 12.7165 9.64526C12.577 9.36079 12.3725 8.95523 12.1523 8.56405L5.18105 12.4886ZM6.01879 14.0813L7.35213 16.0549L13.9812 11.5766L12.6479 9.60295L6.01879 14.0813ZM13.9812 16.0549L15.3145 14.0813L8.68546 9.60295L7.35213 11.5766L13.9812 16.0549ZM12 11.8421C15.7071 13.3447 15.7069 13.345 15.7068 13.3453C15.7068 13.3454 15.7066 13.3457 15.7066 13.3459C15.7064 13.3463 15.7062 13.3467 15.7061 13.3471C15.7058 13.3479 15.7055 13.3486 15.7052 13.3493C15.7046 13.3507 15.7041 13.3519 15.7037 13.353C15.7028 13.3552 15.7021 13.3568 15.7017 13.3579C15.7008 13.36 15.7008 13.36 15.7017 13.3579C15.7035 13.3536 15.7086 13.3414 15.7169 13.3224C15.7336 13.2839 15.7618 13.2205 15.7994 13.1409C15.8789 12.9728 15.9799 12.7765 16.0845 12.6044L9.24882 8.44826C8.95346 8.93405 8.72112 9.39558 8.56727 9.72093C8.48823 9.88806 8.42477 10.0302 8.37897 10.1357C8.35597 10.1886 8.33716 10.2329 8.32279 10.2672C8.3156 10.2844 8.3095 10.2991 8.30452 10.3112C8.30203 10.3173 8.29982 10.3227 8.29789 10.3274C8.29692 10.3297 8.29603 10.3319 8.29521 10.334C8.2948 10.335 8.2944 10.3359 8.29403 10.3369C8.29384 10.3373 8.29365 10.3378 8.29347 10.3382C8.29338 10.3384 8.29325 10.3388 8.29321 10.3389C8.29308 10.3392 8.29295 10.3395 12 11.8421ZM12.6667 14.5263H14.6667V6.52632H12.6667V14.5263ZM18.6667 10.5263V1.31579H10.6667V10.5263H18.6667Z" fill="black" mask="url(#path-1-inside-1_269_269)"/>
</svg>
