<svg width="36" height="36" viewBox="0 0 36 36" fill="none" xmlns="http://www.w3.org/2000/svg">
<path d="M36 30C36 36 31.5 36 31.35 36C24.45 36 11.4 36 4.5 36C4.5 36 0 36 0 30C0 21.45 7.35 19.35 10.5 18C8.4 16.05 7.5 13.5 7.5 10.5C7.5 4.65 12.15 0 18 0C23.85 0 28.5 4.65 28.5 10.5C28.5 13.65 27.6 16.05 25.5 18C27.75 19.05 36 22.65 36 30ZM18 3C13.8 3 10.5 6.3 10.5 10.5C10.5 12.45 10.95 13.95 12 15.15V15C12 15 15 18 18 18C21 18 24 15 24 15V15.15C25.05 13.95 25.5 12.6 25.5 10.5C25.5 6.3 22.2 3 18 3ZM24.45 20.85L24 20.55V21C24 21 21 21 18 21C15 21 12 21 12 21V20.55L11.7 20.7C11.4 20.85 11.1 21 10.65 21.15C6.45 22.8 3 24.75 3 30C3 32.4 4.05 33 4.65 33H31.35C32.4 33 33 31.95 33 30C33 26.4 30.15 23.4 24.45 20.85Z" fill="#2C54E4" fill-opacity="0.5"/>
</svg>
