<svg width="15" height="15" viewBox="0 0 15 15" fill="none" xmlns="http://www.w3.org/2000/svg">
<path d="M9.76235 15C7.72098 15 4.51076 14.3315 3.72056 13.7772C3.53947 13.6467 3.44069 13.4511 3.44069 13.2391V6.86413C3.44069 6.66848 3.53947 6.47283 3.68763 6.3587C3.73702 6.32609 4.88941 5.42935 6.09118 4.76087C7.58928 3.94565 8.62643 2.80435 8.87337 2.08696C9.16969 1.20652 9.59772 0 10.9477 0C11.5897 0 12.1165 0.358696 12.3964 0.978261C12.9561 2.25 12.3634 4.01087 11.3757 5.39674C12.0342 5.54348 12.8573 5.75543 13.3512 5.90217C14.2566 6.17935 14.8493 6.83152 14.981 7.63043C15.0962 8.44565 14.6847 9.27717 13.8122 9.91304C13.1701 11.625 12.0671 14.3315 11.2604 14.7717C10.9477 14.9348 10.4044 15 9.76235 15ZM4.7577 12.8478C6.00887 13.3696 9.86112 13.9076 10.5855 13.6304C10.9641 13.288 11.9354 11.1033 12.6104 9.26087C12.6598 9.13043 12.7421 9.0163 12.8573 8.93478C13.4006 8.57609 13.6805 8.15217 13.6311 7.79348C13.5817 7.5 13.3183 7.25543 12.9232 7.125C12.1 6.86413 10.0587 6.42391 10.0258 6.42391C9.79527 6.375 9.61419 6.21196 9.53187 5.9837C9.44956 5.75543 9.51541 5.51087 9.68003 5.34783C11.1617 3.7663 11.4251 2.15217 11.1452 1.5C11.0794 1.30435 10.997 1.30435 10.9477 1.30435C10.6184 1.30435 10.4702 1.53261 10.1245 2.51087C9.72942 3.65217 8.36302 5.02174 6.73322 5.90217C5.94302 6.32609 5.15281 6.89674 4.7577 7.19022V12.8478ZM2.15661 13.3043V6.78261C2.15661 6.19565 1.67919 5.72283 1.08653 5.72283C0.493879 5.72283 0 6.19565 0 6.78261V13.288C0 13.875 0.477417 14.3478 1.07007 14.3478C1.66273 14.3478 2.15661 13.875 2.15661 13.3043Z" fill="black"/>
</svg>
