<svg width="36" height="37" viewBox="0 0 36 37" fill="none" xmlns="http://www.w3.org/2000/svg">
<path d="M17.8487 3.02521L32.6723 18L29.1933 21.479L28.2857 22.3866V23.5966V33.1261H23.7479V24.0504V21.0252H20.7227H14.6723H11.647V24.0504V33.1261H7.10923V23.5966V22.3866L6.20168 21.479L2.72269 18L17.8487 3.02521ZM17.8487 0C17.0924 0 16.3361 0.302519 15.7311 0.907561L0.907563 15.8824C-0.302521 17.0924 -0.302521 19.0588 0.907563 20.1177L4.38656 23.5966V33.1261C4.38656 34.7899 5.74791 36.1513 7.41177 36.1513H14.9748V24.0504H21.0252V36.1513H28.5883C30.2521 36.1513 31.6135 34.7899 31.6135 33.1261V23.5966L35.0924 20.1177C36.3025 18.9076 36.3025 16.9412 35.0924 15.8824L20.2689 0.907561C19.3614 0.302519 18.605 0 17.8487 0Z" fill="#2C54E4" fill-opacity="0.5"/>
</svg>
