<svg width="42" height="37" viewBox="0 0 42 37" fill="none" xmlns="http://www.w3.org/2000/svg">
<path fill-rule="evenodd" clip-rule="evenodd" d="M20.5455 36.334C31.8924 36.334 41.0909 28.2004 41.0909 18.167C41.0909 8.13364 31.8924 0 20.5455 0C9.19851 0 0 8.13364 0 18.167C0 28.2004 9.19851 36.334 20.5455 36.334Z" fill="#F2F5F7"/>
<rect x="10.3965" y="10.9438" width="20.5455" height="14.4267" rx="4" fill="#F2F5F7"/>
<path fill-rule="evenodd" clip-rule="evenodd" d="M29.7334 10.9438H11.605C10.9376 10.9438 10.3965 11.4052 10.3965 11.9743V24.3401C10.3965 24.9092 10.9376 25.3706 11.605 25.3706H29.7334C30.4008 25.3706 30.9419 24.9092 30.9419 24.3401V11.9743C30.9419 11.4052 30.4008 10.9438 29.7334 10.9438ZM11.605 24.3401V11.9743H29.7334V24.3401H11.605Z" fill="#C2D1D9"/>
<path fill-rule="evenodd" clip-rule="evenodd" d="M13.72 15.1944C13.72 16.2615 14.7345 17.1265 15.986 17.1265C17.2375 17.1265 18.2521 16.2615 18.2521 15.1944C18.2521 14.1273 17.2375 13.2622 15.986 13.2622C14.7345 13.2622 13.72 14.1273 13.72 15.1944ZM17.0435 15.1944C17.0435 15.6923 16.57 16.096 15.986 16.096C15.402 16.096 14.9285 15.6923 14.9285 15.1944C14.9285 14.6964 15.402 14.2927 15.986 14.2927C16.57 14.2927 17.0435 14.6964 17.0435 15.1944Z" fill="#C2D1D9"/>
<path d="M14.7497 23.1601C14.5127 23.3604 14.1301 23.359 13.8951 23.1569C13.6602 22.9548 13.6618 22.6286 13.8988 22.4283L18.8688 18.2271L21.67 20.3045C21.9218 20.4913 21.9484 20.8167 21.7294 21.0314C21.5104 21.2462 21.1287 21.2688 20.8769 21.0821L18.9226 19.6327L14.7497 23.1601Z" fill="#C2D1D9"/>
<path d="M19.2838 23.1589C19.0478 23.3601 18.6652 23.3602 18.4292 23.159C18.1932 22.9578 18.1932 22.6315 18.4292 22.4303L26.3823 15.6484L30.7363 18.9059C30.9872 19.0936 31.0121 19.4191 30.792 19.633C30.5719 19.8469 30.1901 19.8681 29.9392 19.6805L26.4363 17.0598L19.2838 23.1589Z" fill="#C2D1D9"/>
</svg>
