<svg width="36" height="38" viewBox="0 0 36 38" fill="none" xmlns="http://www.w3.org/2000/svg">
<path d="M34.5389 16.1506L31.433 18.0142C31.433 18.1695 31.433 18.4801 31.433 18.6354C31.433 18.7907 31.433 19.1012 31.433 19.2565L34.5389 21.1201C35.9365 21.8966 36.4024 23.7601 35.6259 25.1577L32.3647 30.7484C31.5883 32.146 29.7248 32.6119 28.3271 31.8354L25.2212 29.9719C24.9106 30.2825 24.4447 30.4378 24.1341 30.5931V34.3201C24.1341 36.0284 22.7365 37.2707 21.1835 37.2707H14.8165C13.1082 37.2707 11.8659 35.8731 11.8659 34.3201V30.5931C11.5553 30.4378 11.0894 30.1272 10.7788 29.9719L7.6729 31.8354C6.27525 32.6119 4.4117 32.146 3.63523 30.7484L0.374055 25.1577C-0.402419 23.7601 0.0634607 21.8966 1.46111 21.1201L4.56701 19.2565C4.56701 19.1012 4.56701 18.7907 4.56701 18.6354C4.56701 18.4801 4.56701 18.1695 4.56701 18.0142L1.46111 16.1506C0.0634607 15.3742 -0.402419 13.5106 0.374055 12.113L3.63523 6.52237C4.4117 5.12472 6.27525 4.65884 7.6729 5.43531L10.7788 7.29885C11.0894 6.98826 11.5553 6.83297 11.8659 6.67768V2.95059C11.8659 1.24235 13.2635 0 14.8165 0H21.1835C22.8918 0 24.1341 1.39764 24.1341 2.95059V6.67768C24.6 6.83297 24.9106 7.14355 25.2212 7.29885L28.3271 5.43531C29.7248 4.65884 31.5883 5.12472 32.3647 6.52237L35.6259 12.113C36.4024 13.5106 35.9365 15.3742 34.5389 16.1506ZM29.7247 8.23062L24.9106 11.0259L24.1341 10.4047C23.3577 9.78356 22.5812 9.47298 21.8047 9.0071L20.8729 8.54121V3.10589H14.6612V8.69651L13.7294 9.16238C12.9529 9.47297 12.1764 9.93887 11.4 10.56L10.6235 11.1812L5.80937 8.3859L2.70347 13.6659L7.5176 16.4612L7.36232 17.5483C7.36232 18.0142 7.20701 18.4801 7.20701 18.7907C7.20701 19.2566 7.20702 19.7224 7.36232 20.033L7.5176 21.1201L2.70347 23.9154L5.80937 29.1954L10.6235 26.4001L11.4 27.0213C12.1764 27.6424 12.9529 27.9531 13.7294 28.4189L14.6612 28.8848V34.4754H20.8729V28.8848L21.8047 28.4189C22.5812 28.1083 23.3577 27.6424 24.1341 27.0213L24.9106 26.4001L29.7247 29.1954L32.8306 23.9154L28.0165 21.1201L28.1718 20.033C28.1718 19.5671 28.3271 19.1013 28.3271 18.7907C28.3271 18.3248 28.3271 17.8589 28.1718 17.5483L28.0165 16.4612L32.8306 13.6659L29.7247 8.23062ZM17.7671 24.8472C14.3506 24.8472 11.5553 22.0518 11.5553 18.6354C11.5553 15.2189 14.3506 12.4236 17.7671 12.4236C21.1835 12.4236 23.9788 15.2189 23.9788 18.6354C23.9788 22.0518 21.1835 24.8472 17.7671 24.8472ZM17.7671 15.5295C16.0588 15.5295 14.6612 16.9271 14.6612 18.6354C14.6612 20.3436 16.0588 21.7413 17.7671 21.7413C19.4753 21.7413 20.8729 20.3436 20.8729 18.6354C20.8729 16.9271 19.4753 15.5295 17.7671 15.5295Z" fill="#2C54E4" fill-opacity="0.5"/>
</svg>
